<svg width="199" height="109" viewBox="0 0 199 109" fill="none" xmlns="http://www.w3.org/2000/svg">
<g clip-path="url(#clip0_540_784)">
<path d="M198.934 44.8135C198.717 43.5319 197.935 41.921 196.991 40.9868C195.571 39.5854 193.959 39.4776 192.113 39.4836C191.89 39.4836 191.674 39.4836 191.451 39.4836C192.335 38.9686 193.111 38.2978 193.641 37.3696C195.379 34.3214 193.665 29.758 190.038 29.231C188.323 28.9854 186.393 29.1112 184.672 29.2789C183.632 29.3807 182.597 29.5424 181.575 29.77C180.438 30.0215 179.331 30.4048 178.188 30.6024C177.033 30.8 175.963 30.9377 174.886 31.4228C173.833 31.8959 172.648 32.0397 171.529 32.3211C171.223 32.399 170.898 32.4469 170.579 32.4768C171.313 32.0876 172.041 31.6803 172.787 31.321C173.972 30.7401 175.175 30.3568 176.408 29.8837C177.755 29.3747 179.036 28.7219 180.305 28.0452C182.128 27.075 184.047 26.2606 185.665 24.961C187.415 23.5597 188.053 21.6673 187.583 19.4934C187.156 17.4991 185.845 15.463 183.674 15.1875C182.314 15.0138 180.907 15.2115 179.541 15.2055C178.062 15.2055 176.69 15.5349 175.253 15.8463C173.875 16.1457 172.642 16.6967 171.367 17.2836C170.038 17.8944 168.66 18.3915 167.331 19.0083C165.99 19.6251 164.672 20.3018 163.367 20.9905C162.17 21.6194 160.907 22.1643 159.788 22.9249C159.325 23.2423 158.82 23.7453 158.441 23.913C157.797 24.1945 157.057 24.3083 156.402 24.5718C155.71 24.8473 155 25.1167 154.351 25.488C153.773 25.8174 153.322 26.3145 152.757 26.6618C151.542 27.3984 149.743 27.1409 148.396 27.1349C147.397 27.1349 146.399 27.1349 145.394 27.1349C144.853 27.1349 144.444 26.6499 144.534 26.1169C144.817 24.4999 145.346 22.9249 146.038 21.4337C146.555 20.3198 146.85 19.152 147.301 18.0142C147.77 16.8344 148.426 15.7325 148.793 14.5108C149.485 12.2051 149.46 9.52222 149.057 7.16867C148.883 6.13861 148.474 5.18641 148.185 4.17432C147.921 3.24608 147.722 2.78495 147.518 2.06631C147.391 1.62913 146.922 1.01829 146.621 0.742809C146.128 0.221794 145.833 0.131964 145.25 0.0541109C142.182 -0.377074 139.963 2.18608 138.778 4.7193C138.05 6.27635 137.262 7.81544 136.775 9.46832C136.258 11.217 135.806 12.9777 135.259 14.7204C134.212 18.0561 133.028 21.3559 131.085 24.2903C130.152 25.7036 129.112 27.0152 128.017 28.3027C126.928 29.5843 126.002 31.0276 124.751 32.1654C123.632 33.1835 122.267 33.8003 120.907 34.4291C120.137 34.7825 119.367 35.1418 118.586 35.4712C117.81 35.8006 116.998 35.9263 116.174 36.106C114.435 36.4893 112.637 36.7288 110.916 37.1959C110.11 37.4175 109.377 37.7828 108.553 37.9505C107.692 38.1242 106.85 38.3697 105.996 38.5494C104.276 38.9087 102.375 38.6691 100.637 38.6751C98.724 38.6871 96.8173 38.6212 94.9165 38.4595C93.4128 38.3338 91.9211 38.5254 90.4354 38.1781C89.7316 38.0104 89.0218 37.8786 88.294 37.8547C87.482 37.8307 86.6339 37.9864 85.8459 37.7768C84.9437 37.5373 84.0294 37.3576 83.0971 37.3876C82.0865 37.4175 81.0941 37.4834 80.0896 37.3396C79.1212 37.2019 78.1768 36.9384 77.2325 36.7048C76.2821 36.4773 75.3317 36.2617 74.4054 35.9443C72.6671 35.3454 71.2235 34.1237 69.4611 33.5428C67.9634 33.0518 66.3393 32.8481 65.0461 31.884C64.3965 31.3989 63.3679 31.7822 62.989 32.4229C62.5378 33.1895 62.8747 33.986 63.5303 34.4711C64.7694 35.3993 66.3513 35.7886 67.825 36.1898C69.2867 36.5911 70.4776 37.3696 71.813 38.0583C73.449 38.9027 75.2114 39.274 76.9798 39.7231C78.7903 40.1843 80.6069 40.4957 82.4835 40.3999C83.2595 40.3639 84.0414 40.3879 84.7933 40.5735C85.7016 40.8011 86.5557 40.8909 87.5361 40.849C88.1677 40.8191 88.7993 40.867 89.4128 41.0047C90.2669 41.1964 91.103 41.382 91.9872 41.4C92.7692 41.4179 93.5511 41.3581 94.3331 41.388C95.2474 41.4239 96.1496 41.6096 97.0699 41.6455C98.9285 41.7234 100.799 41.6635 102.664 41.6754C103.554 41.6754 104.456 41.7174 105.341 41.6455C106.309 41.5677 107.193 41.3161 108.125 41.0826C108.859 40.8969 109.623 40.837 110.339 40.5855C111.205 40.2801 112.005 39.9986 112.913 39.825C114.7 39.4836 116.492 39.1542 118.267 38.741C119.975 38.3398 121.629 37.4055 123.211 36.6689C124.655 35.9922 125.99 35.1777 127.145 34.0638C128.336 32.908 129.262 31.4827 130.339 30.2251C132.655 27.5182 134.694 24.6377 136.077 21.3439C136.853 19.4874 137.533 17.589 138.14 15.6666C138.754 13.7143 139.211 11.7081 139.861 9.76176C140.462 7.95917 141.334 6.04279 142.381 4.5037C142.645 4.11444 142.982 3.79105 143.343 3.49161C143.482 3.37783 143.668 3.1802 143.764 3.27003C143.909 3.31195 144.42 4.71929 144.979 5.36607C145.611 6.09669 145.912 6.6237 146.116 7.65974C146.194 8.06098 146.236 8.4742 146.254 8.88742C146.345 10.7319 146.381 12.5225 145.743 14.2293C145.298 15.4211 144.654 16.535 144.227 17.7387C143.848 18.7987 143.47 19.8587 143.024 20.8887C141.966 23.3381 141.322 25.9851 141.298 28.662C141.292 29.6382 142.056 30.1173 142.814 30.1053C142.94 30.1353 143.067 30.1592 143.217 30.1592C144.648 30.1592 146.086 30.1472 147.518 30.1472C149.232 30.1472 150.976 30.285 152.66 29.8658C153.635 29.6262 154.507 29.1172 155.289 28.4944C156.119 27.8296 157.208 27.4344 158.212 27.117C158.808 26.9313 159.445 26.8115 159.993 26.5121C160.444 26.2726 160.799 25.8953 161.208 25.6018C162.621 24.5838 164.354 24.0268 165.761 23.0566C167.169 22.0865 168.708 21.272 170.381 20.8528C172.221 20.3857 173.737 19.3077 175.548 18.8706C176.769 18.5771 178.014 18.2298 179.277 18.2238C180.54 18.2178 181.851 18.0621 183.114 18.1519C183.295 18.1639 183.433 18.1938 183.608 18.2298C183.608 18.2298 183.608 18.2298 183.608 18.2238C183.608 18.2238 183.608 18.2238 183.614 18.2298C183.614 18.2298 183.614 18.2298 183.62 18.2298C183.62 18.2298 183.62 18.2298 183.614 18.2298C183.938 18.5412 184.071 18.6789 184.299 19.1221C184.624 19.7449 184.787 20.4815 184.774 21.1163C184.768 21.4637 184.768 21.4577 184.636 21.7092C184.456 22.0565 184.203 22.314 183.854 22.6195C182.441 23.8651 180.528 24.5119 178.922 25.4222C177.755 26.0809 176.552 26.6798 175.295 27.1349C173.923 27.632 172.606 28.1111 171.289 28.7519C170.02 29.3687 168.799 30.1353 167.511 30.7042C166.507 31.1474 165.533 31.5067 164.642 32.1055C162.778 32.1774 162.808 35.1119 164.745 35.0939C165.352 35.0939 165.954 35.1358 166.543 35.2676C167.77 35.549 169.117 35.549 170.399 35.4951C171.349 35.4532 172.221 35.2256 173.135 35.0041C174.17 34.7525 175.126 34.6208 176.107 34.1716C176.871 33.8243 177.677 33.7045 178.501 33.5847C179.469 33.441 180.39 33.1715 181.34 32.932C183.223 32.4529 185.045 32.2612 186.982 32.2014C187.632 32.1834 188.281 32.1355 188.937 32.1475C189.442 32.1594 190.002 32.2133 190.356 32.4469C191.162 32.9739 191.487 34.5669 191.253 35.4293C190.922 36.615 189.556 37.2378 188.341 37.6391C187.415 37.9445 186.507 38.2619 185.623 38.6871C184.75 39.1063 183.92 39.6034 183.03 39.9807C181.027 40.8311 178.832 41.1305 176.805 41.933C175.8 42.3282 174.844 42.7295 173.779 42.9451C172.095 43.2864 170.351 43.1906 168.654 43.2086C166.742 43.2325 166.711 46.0831 168.624 46.161C171.385 46.2748 174.254 46.1969 176.853 45.1369C178.88 44.3105 181.003 43.8673 183.066 43.1487C183.836 42.8852 184.57 42.5498 185.298 42.2025C185.526 42.3821 185.827 42.4959 186.206 42.4959C187.74 42.4959 189.268 42.4959 190.801 42.4959C191.523 42.4959 192.245 42.5079 192.961 42.4839C193.394 42.472 193.887 42.6636 194.266 42.9091C194.549 43.0888 194.639 43.1906 194.856 43.4182C195.349 43.9452 195.656 44.6578 195.788 45.3824C195.89 45.9334 195.71 46.7 195.505 47.221C195.229 47.9216 195.451 47.7061 195.229 47.9216C194.723 48.4187 193.809 48.7002 193.045 48.9158C191.758 49.2811 190.447 49.5745 189.147 49.8799C188.498 50.0297 187.824 50.1375 187.193 50.3411C186.663 50.5088 186.176 50.928 185.635 51.0118C185.328 51.0597 184.985 50.9819 184.666 51.0118C184.155 51.0537 183.644 51.1615 183.144 51.2753C182.645 51.3891 182.182 51.449 181.695 51.5149C178.603 51.9341 175.716 53.4133 172.57 53.4732H172.155C170.218 53.4732 170.218 56.4675 172.155 56.4675C174.838 56.4675 177.538 56.5453 180.221 56.4376C181.4 56.3896 182.585 56.2998 183.764 56.4196C184.702 56.5154 185.641 56.8388 186.543 57.0963C187.313 57.3179 188.143 57.5754 188.744 58.0844C189.37 58.6114 189.605 59.384 189.743 60.1625C189.773 60.3422 189.797 60.5218 189.803 60.7075C189.803 60.7794 189.809 60.8692 189.815 60.941C189.815 60.941 189.641 61.0608 189.454 61.1686C188.756 61.5818 187.999 61.8932 187.271 62.2466C186.26 62.7317 185.129 62.8574 184.059 63.1569C182.928 63.4683 181.875 64.0492 180.708 64.1869C179.385 64.3486 178.134 64.5822 176.799 64.5762C175.505 64.5702 174.212 64.6061 172.925 64.5522C171.74 64.5043 170.555 64.4145 169.37 64.4804C168.059 64.5522 166.886 64.8517 165.665 65.3188C164.48 65.7679 163.325 66.247 162.23 66.8818C161.785 67.1393 161.298 67.319 160.805 67.4627C160.053 67.6783 159.343 67.9957 158.627 68.3131C156.239 69.3551 153.857 70.1936 151.319 70.7924C150.008 71.1038 148.697 71.3973 147.379 71.6608C146.152 71.9063 144.901 72.05 143.65 71.9902C142.399 71.9303 141.166 72.1219 139.939 72.4393C138.712 72.7567 137.491 72.9484 136.246 73.0621C135 73.1759 133.713 73.4634 132.432 73.5652C131.127 73.667 129.816 73.6371 128.504 73.6371C127.247 73.6371 125.984 73.6371 124.727 73.6371C123.47 73.6371 121.328 73.5412 120.053 73.3556C117.647 73.0023 115.217 73.2358 112.781 73.2238C111.386 73.2238 109.996 73.2119 108.601 73.2119C107.205 73.2119 105.016 73.0322 103.662 72.8765C102.802 72.7807 101.942 72.7507 101.058 72.7687C99.8187 72.7926 98.4894 72.9663 97.2624 72.8346C96.7812 72.7807 96.324 72.5711 95.8428 72.4872C95.1872 72.3794 94.5316 72.4333 93.8759 72.3555C92.5406 72.2058 91.2654 71.6907 89.9181 71.5949C87.5181 71.4332 85.058 71.3015 82.7181 70.6846C81.5151 70.3672 80.3061 70.0738 79.1212 69.7085C77.8761 69.3252 76.7152 68.7323 75.464 68.373C73.1543 67.7142 70.8265 67.1274 68.6611 66.0554C67.7588 65.6062 66.9047 65.0852 66.1288 64.4564C65.4792 63.8216 65.4731 62.7975 65.425 61.9292C65.3889 61.2405 65.2987 60.5937 65.1002 59.929C64.8897 59.2163 64.8416 58.4977 64.6852 57.773C64.5468 57.1203 64.3183 56.4915 64.1619 55.8387C64.0055 55.1859 63.9453 54.5391 63.825 53.8864C63.6927 53.1917 63.428 52.5329 63.3258 51.8323C63.2115 51.0657 63.1694 50.2932 63.0551 49.5266C62.8326 48.0594 62.0145 46.7958 61.798 45.3345C61.5754 43.8613 61.3228 42.3941 61.1002 40.9209C60.8837 39.4956 60.7033 38.0703 60.18 36.7168C59.9454 36.112 59.6446 35.543 59.416 34.9322C59.1634 34.2495 59.0852 33.6866 59.007 32.9739C58.8567 31.5366 58.0506 30.3449 57.7379 28.9555C57.5935 28.3027 57.4612 27.6679 57.2025 27.0451C56.9559 26.4522 56.5529 25.9552 56.4326 25.3204C56.186 24.0388 55.2717 23.2004 54.5198 22.1823C53.6056 20.9486 52.5229 20.3617 50.965 20.3557C49.7259 20.3557 48.4627 20.4516 47.356 21.0504C46.159 21.6972 45.3771 22.7812 45.1244 24.1047C44.9921 24.7934 44.956 25.4641 44.9079 26.1588C44.8538 26.8894 44.6492 27.6021 44.6071 28.3387C44.5289 29.7819 44.7816 31.2372 44.6673 32.6864C44.6132 33.4231 44.4207 34.1477 44.4147 34.8963C44.4086 35.6808 44.5891 36.3575 44.8297 37.0941C45.0282 37.693 44.8237 38.3517 44.8778 38.9746C44.962 39.8848 45.2267 40.7891 45.5154 41.6515C46.0146 43.1606 46.7425 44.58 47.0793 46.143C47.3319 47.3407 47.374 48.5325 47.374 49.7422C46.8567 49.4607 46.4958 49.0835 46.0868 48.6583C45.1966 47.73 44.4026 46.7239 43.5365 45.7717C42.6462 44.7956 42.141 43.4721 41.5636 42.3043C41.2508 41.6755 40.9861 41.0227 40.6733 40.3939C40.4147 39.8848 40.0177 39.4357 39.7891 38.9147C39.5425 38.3457 39.4222 37.7349 39.1636 37.166C38.8749 36.5312 38.6343 35.9383 38.2854 35.3275C37.6237 34.1836 37.2628 32.896 36.6012 31.7582C35.9275 30.5964 35.0072 29.5663 34.2012 28.4944C33.7441 27.8895 33.2929 27.2787 32.8418 26.6678C32.4388 26.1109 32.114 25.506 31.7892 24.9071C31.1396 23.6974 29.9907 22.7392 28.902 21.9248C27.9155 21.1882 26.6945 20.4516 25.4674 20.242C23.2359 19.8587 20.0239 20.0863 19.4103 22.7452C19.1336 23.931 19.1517 25.536 19.4705 26.7037C19.6389 27.3326 19.9637 27.9254 20.2705 28.4944C20.5652 29.0393 20.7637 29.6322 21.0584 30.1772C21.702 31.3689 22.6163 32.4469 23.4464 33.5129C24.1682 34.4471 24.6193 35.567 25.1847 36.5911C25.9366 37.9625 26.7366 39.262 27.1697 40.7771C27.314 41.2802 27.5125 41.7773 27.8133 42.2144C27.9035 42.3462 27.9997 42.4839 28.0539 42.6396C28.1802 43.0169 28.1862 43.4002 28.3546 43.7715C28.511 44.1188 28.7456 44.3823 28.9501 44.6997C29.714 45.8975 30.2193 47.221 30.4839 48.6044C30.526 48.814 30.5681 49.0176 30.6223 49.2152C30.5621 49.1673 30.508 49.1194 30.4358 49.0775C30.3997 49.0595 30.3697 49.0355 30.3456 49.0116C30.3155 48.9517 30.2794 48.8978 30.2554 48.8439C30.117 48.5744 29.9907 48.3169 29.8163 48.0714C29.4073 47.4905 28.9321 46.9754 28.4629 46.4484C26.6584 44.4362 25.8283 41.8132 24.3005 39.6213C23.9336 39.1003 23.6088 38.5494 23.1697 38.0822C22.7066 37.5912 22.472 37.0402 22.0509 36.4952C21.5637 35.8784 21.0765 35.2556 20.6615 34.5908C19.7472 33.1416 18.9171 31.6624 17.5938 30.5545C16.4931 29.6322 15.3141 28.9615 14.0389 28.3327C12.8059 27.7278 11.7833 27.2847 10.3758 27.2667C8.99237 27.2547 7.85554 27.7997 7.05554 28.9315C6.27359 30.0335 6.10517 31.4588 6.05104 32.7703C5.9969 34.1118 5.88863 35.4951 6.3578 36.7767C6.54427 37.2977 6.77885 37.7948 7.01344 38.2859C5.79841 38.2859 4.61346 38.4116 3.59692 39.2021C3.0255 39.6453 2.41798 40.1903 2.04505 40.8191C1.5398 41.6635 1.55183 42.6875 1.55784 43.6338C1.56386 44.58 1.85257 45.2866 2.14731 46.173C2.40595 46.9754 2.57437 47.8378 2.71873 48.6882C2.86911 49.5925 3.00745 50.4489 3.45858 51.2633C3.83151 51.9341 4.28865 52.6288 4.73977 53.2516C5.1909 53.8744 5.58187 54.5332 6.06908 55.132C6.54427 55.7189 6.78487 56.4495 7.22396 57.0843C8.27057 58.6055 9.41342 60.0308 10.5984 61.4381C10.851 61.7375 11.0856 62.0609 11.3683 62.3364C11.6149 62.5819 11.9517 62.7436 12.1923 62.9832C12.836 63.63 13.3292 64.4863 13.8765 65.211C14.9592 66.6423 16.3668 67.7861 17.5337 69.1515C18.069 69.7803 18.6825 70.3672 19.0915 71.0919C19.1336 71.1637 19.1697 71.2356 19.1998 71.3015C19.1276 71.2655 19.0434 71.2236 18.9111 71.1697C18.1833 70.8763 17.4976 70.499 16.8901 70.0019C16.2825 69.5049 15.6991 69.0916 15.0374 68.7024C14.3156 68.2772 13.6359 67.7921 13.0104 67.2411C11.5908 65.9955 10.2856 64.654 8.98635 63.2886C7.06156 61.2584 2.11122 57.6712 0.414992 61.8393C-0.162448 63.2587 -4.29153e-05 64.8936 0.613486 66.265C0.938296 66.9896 1.38942 67.7023 1.91874 68.3011C2.16535 68.5766 2.45407 68.7862 2.73076 69.0318C3.32023 69.5588 3.627 70.2834 4.43301 70.6667C6.80291 71.7985 8.7638 73.6011 9.84048 75.9846C10.845 78.2184 12.5773 79.7635 14.0811 81.5301C14.6886 82.2488 15.3923 82.8716 15.9397 83.6441C16.5292 84.4706 17.1607 85.2791 17.8705 86.0097C18.3577 86.5127 18.863 86.9619 19.3742 87.399C19.4344 87.7763 19.6509 88.1416 20.084 88.3872C21.3231 89.0938 22.3817 90.064 23.6148 90.7767C24.2404 91.142 24.8599 91.5432 25.4975 91.8846C26.1652 92.2379 26.8749 92.5014 27.5426 92.8607C28.8058 93.5374 30.2313 94.1543 31.4042 94.9747C31.9997 95.3939 32.505 95.891 33.2328 96.0886C33.6177 96.1904 34.0388 96.1126 34.4117 96.2024C34.6704 96.2683 34.923 96.436 35.1696 96.5438C35.5666 96.7174 35.9215 96.8312 36.3546 96.8791C36.4809 96.8911 36.6613 96.8851 36.7997 96.9091C36.8418 96.927 36.938 96.957 36.9681 96.9749C37.7019 97.3462 38.3636 97.3702 39.1515 97.5439C39.8433 97.6936 40.5049 97.9212 41.2147 98.023C42.0087 98.1427 42.8026 98.2206 43.5786 98.4062C45.1064 98.7716 46.55 99.4004 48.0297 99.9214C49.4251 100.412 50.9048 100.76 52.3484 101.095C52.968 101.239 53.5875 101.371 54.2131 101.46C55.2717 101.604 56.2822 101.916 57.3409 102.035C58.0146 102.107 58.6762 102.083 59.3379 102.191C60.1439 102.323 60.9559 102.287 61.7559 102.401C63.1514 102.604 64.5288 102.88 65.9002 103.221C67.4641 103.61 69.0461 103.515 70.634 103.712C73.8701 104.113 77.058 104.85 80.3121 105.161C81.7437 105.299 83.1512 105.605 84.5467 105.976C85.3768 106.198 86.2128 106.168 87.0309 106.293C87.8128 106.413 88.6068 106.509 89.3888 106.629C90.9166 106.862 92.4323 107.114 93.9662 107.317C95.1451 107.473 96.324 107.413 97.497 107.527C98.3391 107.605 99.7165 107.713 100.559 107.749C101.401 107.785 102.135 107.892 102.922 108.024C104.962 108.377 107.025 108.515 109.094 108.443C110.195 108.407 111.307 108.407 112.396 108.587C114.032 108.856 115.698 108.755 117.352 108.701C117.972 108.683 118.598 108.575 119.193 108.773C120.005 109.048 120.805 108.952 121.641 108.952C123.343 108.94 125.046 108.946 126.748 108.946C127.548 108.946 128.348 108.964 129.154 108.952C129.99 108.94 130.796 108.761 131.626 108.701C132.408 108.647 133.148 108.683 133.93 108.551C134.742 108.419 135.548 108.252 136.342 108.054C137.894 107.665 139.343 106.988 140.889 106.599C141.214 106.515 141.551 106.491 141.882 106.467C142.88 106.389 143.848 106.096 144.799 105.796C145.244 105.659 145.996 105.521 146.465 105.509C147.181 105.485 147.867 105.389 148.564 105.221C149.232 105.06 149.869 104.964 150.513 104.7C151.133 104.449 151.794 104.407 152.432 104.215C153.069 104.03 153.605 103.646 154.212 103.419C154.952 103.143 155.668 102.91 156.36 102.514C156.973 102.167 157.539 101.748 158.092 101.311C158.621 100.904 159.199 100.58 159.746 100.203C160.299 99.8256 160.739 99.4183 161.214 99.1369C161.869 98.7596 162.375 98.2446 162.928 97.7475C163.993 96.7893 165.244 96.0826 166.272 95.0646C167.277 94.0704 168.203 92.9925 169.202 91.9924C170.272 90.9264 171.295 89.7346 172.017 88.3932C172.36 87.7584 172.594 87.0876 172.853 86.4229C173.105 85.7701 173.52 85.2431 173.857 84.6383C174.188 84.0334 174.411 83.3806 174.669 82.7458C174.916 82.129 175.265 81.5601 175.481 80.9313C176.462 77.9908 177.526 75.0803 178.068 72.0201C178.182 71.3853 178.513 70.8403 178.627 70.2055C178.729 69.6366 178.615 68.9898 178.952 68.5048C179.175 68.1814 179.211 67.7801 179.108 67.4028C179.848 67.307 180.588 67.1813 181.322 67.0854C182.615 66.9177 183.758 66.3069 185.003 65.9775C186.29 65.6362 187.535 65.4026 188.75 64.8277C190.308 64.0911 192.498 63.3844 192.78 61.4441C193.099 59.2702 192.137 56.8268 190.374 55.5213C189.538 54.9045 188.546 54.5272 187.559 54.2337C187.168 54.1199 186.777 54.0061 186.387 53.8984C186.465 53.8804 186.543 53.8684 186.621 53.8445C187.247 53.6648 187.758 53.2516 188.39 53.0959C189.256 52.8863 190.122 52.7006 190.988 52.491C193.334 51.9281 196.498 51.4969 197.947 49.317C198.789 48.0534 199.216 46.2029 198.982 44.7836L198.934 44.8135ZM175.223 70.7685C175.024 71.4332 174.97 72.1638 174.814 72.8465C174.639 73.6191 174.447 74.3916 174.218 75.1522C173.779 76.5955 173.154 77.9729 172.745 79.4281C172.582 80.009 172.372 80.4881 172.125 81.0391C171.824 81.6978 171.626 82.4105 171.289 83.0453C170.982 83.6262 170.579 84.1292 170.302 84.7281C170.014 85.3689 169.821 86.0516 169.508 86.6804C168.871 87.944 167.951 88.992 166.958 89.9862C165.954 90.9863 165.039 92.0702 164.029 93.0583C163.024 94.0405 161.809 94.7172 160.775 95.6515C160.318 96.0647 159.933 96.3941 159.409 96.7174C158.868 97.0468 158.423 97.502 157.887 97.8433C156.709 98.5979 155.638 99.5561 154.375 100.179C153.791 100.466 153.148 100.586 152.558 100.868C151.933 101.167 151.445 101.395 150.754 101.532C150.128 101.652 149.605 101.916 149.003 102.089C148.378 102.263 147.662 102.425 147.018 102.508C146.381 102.598 145.737 102.526 145.1 102.628C144.378 102.742 143.686 103.018 142.982 103.215C141.701 103.574 140.318 103.539 139.079 104.036C137.755 104.569 136.36 104.994 134.97 105.311C134.315 105.461 133.635 105.635 132.961 105.7C132.095 105.784 131.235 105.76 130.369 105.874C128.823 106.078 127.229 105.964 125.671 105.964C124.047 105.964 122.417 105.928 120.799 105.994C120.119 106.018 119.548 105.73 118.862 105.688C118.098 105.635 117.316 105.718 116.552 105.736C115.043 105.766 113.617 105.736 112.113 105.581C110.525 105.413 108.931 105.509 107.344 105.479C105.774 105.449 104.27 105.215 102.724 104.988C101.304 104.778 99.8368 104.898 98.4533 104.617C97.6894 104.461 96.9255 104.473 96.1496 104.491C95.2955 104.509 94.5015 104.395 93.6594 104.299C92.1557 104.131 90.688 103.808 89.1842 103.622C87.7406 103.443 86.285 103.341 84.8655 103.012C81.7858 102.293 78.646 102.011 75.5302 101.496C73.9423 101.239 72.3423 100.945 70.7423 100.754C69.2325 100.574 67.7588 100.634 66.2792 100.251C63.422 99.5142 60.4987 99.3704 57.5755 99.083C56.8837 99.0171 56.2101 98.8015 55.5243 98.6757C54.6822 98.52 53.8341 98.4003 52.9981 98.1966C51.5484 97.8433 50.0688 97.5139 48.6612 97.0049C47.2297 96.4899 45.8222 95.891 44.3365 95.5377C43.6447 95.37 42.941 95.2921 42.2372 95.1903C41.4372 95.0765 40.6914 94.8669 39.9094 94.6753C39.3139 94.5316 38.8027 94.5376 38.2613 94.298C37.6177 94.0165 36.9561 94.0764 36.3305 93.8429C35.5907 93.5674 35.0373 93.3159 34.2373 93.232C33.6659 93.1721 33.2809 92.6871 32.8117 92.3756C32.2102 91.9744 31.5426 91.663 30.899 91.3396C30.1892 90.9743 29.5095 90.5491 28.7937 90.1898C27.5005 89.531 26.2313 88.9022 24.9802 88.1596C24.1862 87.6865 23.4584 87.1116 22.7005 86.5786C22.6284 86.381 22.5201 86.2013 22.3517 86.0636C20.9983 84.9377 19.687 83.8178 18.6404 82.3745C17.654 81.0091 16.4991 79.7755 15.3622 78.5298C12.9623 75.9008 10.6525 73.1999 8.25253 70.5768C7.68712 69.96 7.10968 69.3432 6.52021 68.7443C5.93675 68.1634 5.41946 67.4747 4.81195 66.9357C3.89767 66.1272 3.04956 65.0912 3.01948 63.9234C3.01347 63.6419 3.01948 63.4144 3.07963 63.1808C3.09166 63.1269 3.12174 63.0371 3.1458 62.9592C3.25407 62.9892 3.3864 63.0251 3.42249 63.0371C3.89767 63.1748 4.22248 63.3425 4.64353 63.612C5.96081 64.4504 6.91118 65.5763 7.99388 66.6842C9.23899 67.9538 10.5442 69.2294 11.9517 70.3193C12.6014 70.8224 13.3111 71.1817 14.0029 71.6129C14.6765 72.0321 15.2239 72.619 15.8976 73.0442C17.0344 73.7568 18.478 74.4815 19.8554 74.4395C20.5351 74.4156 21.2509 74.2359 21.7502 73.7568C22.4238 73.11 22.4419 72.1459 22.2735 71.2895C21.9547 69.6606 20.8239 68.4748 19.7773 67.2531C19.2539 66.6423 18.7427 66.0254 18.1652 65.4565C17.5517 64.8517 16.878 64.2947 16.3427 63.612C15.8495 62.9832 15.3743 62.3304 14.8991 61.6896C14.6404 61.3483 14.4119 61.0069 14.0811 60.7314C13.7202 60.426 13.4014 60.2044 13.0886 59.8391C12.5833 59.2403 12.0059 58.6773 11.5427 58.0425C11.0194 57.3359 10.5202 56.6112 10.0029 55.9046C9.47958 55.1859 9.19688 54.3475 8.67959 53.6408C8.45704 53.3354 8.20441 53.0959 8.01193 52.7725C7.78336 52.3892 7.56682 52.0718 7.29013 51.7185C6.83299 51.1256 6.60442 50.371 6.29164 49.6823C5.93675 48.8978 5.58187 47.9516 5.43751 47.1072C5.3533 46.6401 5.28714 46.155 5.13075 45.7058C4.98639 45.2866 4.75782 44.8974 4.61947 44.4841C4.48714 44.0889 4.38489 43.6697 4.3909 43.2565C4.39692 42.987 4.48113 42.5738 4.59541 42.3522C4.83601 41.891 5.51571 41.4179 6.02096 41.3281C6.73675 41.1964 7.51268 41.3101 8.23448 41.3161C8.29463 41.3161 8.34877 41.3042 8.4029 41.2982C8.95628 42.1366 9.67206 42.8672 10.3578 43.6158C11.254 44.5919 12.2284 45.4363 13.1788 46.3526C13.5818 46.7419 13.7683 47.221 14.069 47.6881C14.472 48.3109 14.9111 48.9277 15.3743 49.5086C15.8495 50.0955 16.2585 50.7244 16.7276 51.3172C17.2028 51.9221 17.7803 52.4072 18.3156 52.9521C18.5261 53.1677 18.8149 53.3773 18.9893 53.6169C19.1336 53.8205 19.2058 54.09 19.3321 54.3056C19.693 54.9344 20.2224 55.3476 20.7336 55.8387C21.269 56.3537 21.7502 56.9286 22.2614 57.4676C22.7908 58.0246 23.3622 58.5755 23.8133 59.1983C24.2404 59.7972 24.499 60.4799 24.9802 61.0488C25.4795 61.6357 26.0689 62.1508 26.6163 62.6957C27.9877 64.0552 30.117 61.9412 28.7456 60.5757C28.3125 60.1446 27.8734 59.7194 27.4464 59.2882C27.0373 58.8809 26.8389 58.3599 26.5381 57.8748C25.8103 56.713 24.7577 55.7369 23.8253 54.7428C23.1276 54.0062 22.2013 53.3175 21.7502 52.4191C21.1908 51.3112 20.096 50.5746 19.266 49.6823C18.8991 49.2871 18.6164 48.82 18.2976 48.3888C17.9066 47.8618 17.4855 47.3707 17.1126 46.8257C16.3788 45.7537 15.8254 44.6878 14.8389 43.8074C13.8765 42.951 13.0104 42.0647 12.1322 41.1245C11.7533 40.7173 11.3563 40.316 11.0315 39.8609C10.6585 39.3459 10.5202 38.765 10.2615 38.19C9.81041 37.1899 9.10666 36.2617 8.97433 35.1298C8.90816 34.5849 8.99839 33.986 9.0044 33.441C9.0044 32.8421 9.01643 32.2313 9.13072 31.6444C9.20891 31.2551 9.30515 30.8419 9.56379 30.5365C9.81642 30.2371 10.039 30.273 10.454 30.279C11.5066 30.3029 12.3608 30.8599 13.2991 31.2971C14.3638 31.7941 15.4164 32.5786 16.2164 33.441C16.9863 34.2734 17.5397 35.2975 18.1893 36.2198C18.887 37.2019 19.5126 38.2379 20.1803 39.2381C20.475 39.6812 20.878 40.0226 21.1968 40.4418C21.5577 40.9149 21.9366 41.4419 22.2314 41.9629C22.9291 43.1966 23.5306 44.4722 24.2163 45.7178C24.9562 47.0653 25.9847 48.1432 26.9592 49.317C27.3261 49.7542 27.5246 50.2692 27.8373 50.7363C28.1621 51.2094 28.6794 51.4669 28.9862 51.8323C29.4133 52.3413 29.7862 52.8024 30.3817 53.1438C31.0794 53.551 31.8193 53.575 32.6012 53.575C32.9982 53.575 33.305 53.4432 33.5396 53.2456C33.7741 53.1737 33.9847 53.0599 34.1531 52.8923C34.7606 52.2874 34.6884 51.3831 34.1531 50.7723C34.3215 50.9639 34.117 50.4429 34.0809 50.3231C33.9907 49.9937 33.8283 49.6943 33.714 49.3769C33.5215 48.8439 33.4193 48.257 33.323 47.7001C33.1065 46.4904 32.6493 45.3525 32.0719 44.2626C31.7892 43.7356 31.4884 43.2505 31.1757 42.7474C30.8689 42.2504 30.899 41.6036 30.6042 41.0646C30.4839 40.843 30.2975 40.6514 30.1832 40.4298C30.0569 40.1783 30.0088 39.8848 29.9306 39.6094C29.7381 38.9686 29.4674 38.3457 29.1847 37.7409C28.6313 36.5791 27.9396 35.4832 27.3561 34.3393C26.7787 33.2134 26.1772 32.1954 25.3832 31.2072C24.6915 30.3509 23.9336 29.3687 23.4825 28.3626C23.0735 27.4583 22.3697 26.4702 22.2735 25.4761C22.2254 24.9431 22.2735 24.4041 22.2915 23.8711C22.2975 23.6555 22.3035 23.4998 22.3336 23.38C22.3336 23.3681 22.2915 23.3321 22.3697 23.3142C22.4479 23.2902 22.7547 23.1824 23.0614 23.1704C23.6148 23.1405 24.2163 23.0746 24.7697 23.1584C25.708 23.2962 26.7125 24.0029 27.4343 24.5838C27.8975 24.9551 28.3546 25.3743 28.7516 25.8174C29.1486 26.2606 29.3351 26.8175 29.6298 27.3266C30.9411 29.5903 33.0764 31.3749 34.2253 33.7345C34.7486 34.8004 35.1155 35.9323 35.729 36.9564C36.0358 37.4654 36.2042 37.9685 36.4568 38.5074C36.7034 39.0285 36.8057 39.5854 37.0343 40.1124C37.2929 40.7173 37.7019 41.2263 38.0087 41.8072C38.3515 42.46 38.6282 43.1547 38.953 43.8194C39.6027 45.1369 40.1981 46.4904 41.1545 47.6222C41.5575 48.1013 42.0267 48.5145 42.4177 49.0056C42.8568 49.5566 43.2718 50.0896 43.765 50.5926C44.2643 51.1076 44.7395 51.6346 45.341 52.0479C45.7981 52.3593 46.4056 52.521 46.8146 52.8923C47.6507 53.6468 48.7214 53.2396 49.1845 52.509C49.8161 52.3892 50.3695 51.9221 50.3695 51.0956C50.3695 49.6224 50.4176 48.1612 50.2011 46.7C50.0026 45.3765 49.6718 44.1308 49.1845 42.8792C48.6853 41.5976 48.0778 40.2861 47.8793 38.9147C47.7951 38.3338 47.9455 37.7349 47.8973 37.148C47.8432 36.5192 47.5064 35.9862 47.4282 35.3754C47.368 34.9322 47.4282 34.4471 47.4943 34.0099C47.6146 33.2374 47.6868 32.4948 47.6688 31.7103C47.6447 30.4048 47.4582 29.0274 47.6688 27.7398C47.777 27.087 47.8853 26.4522 47.9094 25.7875C47.9274 25.3084 47.9635 24.6856 48.18 24.2604C48.565 23.4998 49.4913 23.4399 50.2131 23.392C50.6221 23.3681 51.2056 23.2483 51.5905 23.4279C51.9394 23.5896 52.162 24.0627 52.3845 24.3742C52.589 24.6616 52.8056 24.9551 53.0402 25.2186C53.1484 25.3443 53.3469 25.4761 53.4251 25.6138C53.5274 25.7995 53.5093 26.1288 53.5574 26.3384C53.6417 26.6858 53.792 27.0211 53.9544 27.3326C54.2191 27.8416 54.4838 28.2668 54.6281 28.8297C54.7845 29.4526 54.8807 30.0814 55.1093 30.6862C55.3319 31.2731 55.6146 31.8361 55.8131 32.4289C56.0296 33.0757 55.9995 33.6985 56.1078 34.3633C56.3243 35.6928 57.0762 36.8426 57.4852 38.1062C57.9003 39.4117 58.0446 40.7771 58.2552 42.1246C58.4657 43.496 58.6762 44.8734 58.9108 46.2448C59.1394 47.6102 59.9213 48.802 60.1318 50.1794C60.2521 50.9879 60.2882 51.8143 60.4206 52.6228C60.5348 53.3354 60.8055 54.0121 60.9258 54.7248C61.0461 55.4434 61.1303 56.1561 61.3168 56.8687C61.5093 57.5994 61.7679 58.312 61.8762 59.0606C61.9845 59.8032 62.1769 60.4859 62.3333 61.2165C62.4476 61.7435 62.4175 62.2945 62.4717 62.8275C62.5739 63.8396 62.7844 64.8696 63.3077 65.732C63.3739 65.9476 63.4882 66.1452 63.6686 66.3009C63.7709 66.3907 63.8852 66.4746 63.9935 66.5644C64.0115 66.5824 64.0295 66.6063 64.0476 66.6243C64.0837 66.6543 64.1198 66.6782 64.1619 66.7081C66.0205 68.1993 68.1618 69.1935 70.4175 69.9899C71.6866 70.4391 72.9558 70.8044 74.255 71.1458C75.5603 71.4871 76.7633 72.098 78.0505 72.5052C80.6069 73.3196 83.2113 73.9724 85.888 74.188C86.4715 74.2359 87.0429 74.3497 87.6203 74.4335C88.3482 74.5354 89.0519 74.5234 89.7737 74.5773C91.1451 74.6791 92.4865 75.2001 93.8639 75.3378C94.3812 75.3917 94.9105 75.3199 95.4098 75.4396C96.0473 75.5954 96.6428 75.775 97.3045 75.8169C98.6819 75.8948 100.089 75.757 101.467 75.7451C102.062 75.7451 102.67 75.7271 103.265 75.793C103.897 75.8648 104.516 76.0445 105.148 76.1283C106.574 76.32 108.071 76.1882 109.509 76.1942C110.934 76.1942 112.36 76.2062 113.792 76.2062C115.163 76.2062 116.534 76.0984 117.906 76.1164C119.235 76.1343 120.504 76.5176 121.828 76.6014C123.217 76.6853 124.625 76.6134 126.014 76.6134C128.805 76.6134 131.596 76.7212 134.363 76.314C135.65 76.1283 136.943 76.0146 138.23 75.8469C139.56 75.6732 140.817 75.1582 142.146 74.9905C143.5 74.8168 144.853 75.1103 146.212 74.9007C147.608 74.6851 148.997 74.3737 150.375 74.0682C153.208 73.4334 155.921 72.6849 158.597 71.553C159.812 71.038 161.003 70.5708 162.254 70.1397C163.493 69.7145 164.57 68.9419 165.791 68.4568C166.904 68.0137 168.017 67.5585 169.226 67.4807C170.495 67.3968 171.764 67.5046 173.033 67.5526C174.032 67.5885 175.03 67.5825 176.023 67.5765C175.824 68.0436 175.74 68.5347 175.698 69.0617C175.65 69.7205 175.415 70.1516 175.229 70.7745L175.223 70.7685Z" fill="#0E2225"/>
<path d="M183.602 18.2055C183.414 18.169 183.699 18.3089 183.602 18.2055V18.2055Z" fill="#221F20"/>
</g>
<defs>
<clipPath id="clip0_540_784">
<rect width="199" height="109" fill="white"/>
</clipPath>
</defs>
</svg>
