<svg width="330" height="452" viewBox="0 0 330 452" fill="none" xmlns="http://www.w3.org/2000/svg">
<g clip-path="url(#clip0_540_676)">
<path d="M251.416 196.578L220.072 185.378L205.479 98.871L182.741 141.318L164.164 126.366L192.892 71.2697L209.424 75.9818L237.485 84.7107L251.416 196.578Z" fill="#1A5B60"/>
<path d="M268.986 270.05C263.628 272.396 260.135 275.22 254.777 277.562C249.955 279.672 243.301 282.134 238.435 283.413C236.156 268.78 233.881 254.146 231.601 239.508H275.556L268.981 270.05H268.986Z" fill="#1A5B60"/>
<path d="M297.013 99.0013C297.013 100.522 292.288 107.822 285.8 107.223C259.799 104.824 238.815 86.5115 209.293 77.2467C191.874 71.7767 161.777 75.1514 130.141 83.6002C131.977 76.5032 133.813 69.4061 135.654 62.3139C163.954 55.159 197.325 52.9574 224.363 62.3139C243.715 69.0151 263.223 88.1964 285.191 79.9745C289.132 86.3183 293.077 92.6622 297.018 99.0061L297.013 99.0013Z" fill="#D6F2EE"/>
<path d="M90.6863 91.3732C90.7156 87.3177 92.9221 82.8471 95.8057 79.9069C87.3547 80.9883 79.0498 82.6009 71.1394 84.5996C69.3031 91.6967 70.667 106.248 68.8306 113.345C78.061 110.883 83.9548 101.396 92.6444 99.8896C91.3634 97.2198 90.662 94.2699 90.6863 91.3732Z" fill="#C1D3D3"/>
<path d="M303.793 234.169C297.792 223.692 286.998 242.468 283.053 236.071C280.111 231.301 260.924 108.705 260.924 77.2612C260.924 74.4803 249.029 96.4521 249.029 96.4521C246.078 92.0249 244.134 119.037 241.207 114.581C241.207 114.581 233.521 124.575 226.2 108.705C225.342 106.851 224.003 102.719 224.027 97.4853C224.037 95.6121 224.519 93.7727 225.415 92.1263C233.136 77.9371 240.851 63.743 248.572 49.5537L279.784 56.0859L303.793 234.164V234.169Z" fill="#349894"/>
<path d="M311.586 160.408C311.586 160.408 306.102 131.512 302.302 118.255C298.503 104.998 286.852 82.5767 276.526 73.225C261.158 59.311 242.137 43.8954 222.775 42.225C219.789 41.9691 171.246 34.7417 138.562 43.8954C137.593 37.175 136.629 30.4545 135.659 23.734C169.385 15.8259 207.033 17.1536 209.298 17.1584C248.581 17.2598 289.02 57.6502 293.491 62.3719C308.43 78.1543 327.655 113.939 329.2 157.269C323.33 158.317 317.461 159.36 311.591 160.408H311.586Z" fill="#ABE4DC"/>
<path d="M297.924 67.5088L280.237 50.7945C278.308 46.266 273.457 42.5195 271.932 40.3904C270.856 38.8889 270.836 37.1364 272.678 37.1074C274.728 37.0736 280.934 47.1398 281.528 42.5629C281.528 42.5533 272.268 30.4352 273.866 27.804C274.266 27.0508 276.175 27.693 276.18 27.693C276.735 27.7123 281.036 37.5033 281.587 37.5226C282.468 37.5564 277.553 27.5481 277.529 26.6743C277.466 24.5065 279.37 25.308 280.106 25.3321C280.427 25.3418 285.386 36.6198 285.707 36.6294C286.224 36.6487 283.004 29.3489 282.941 26.737C282.902 25.1873 284.602 26.1818 285.639 26.7901C286.121 27.0702 286.472 27.524 286.633 28.055C288.342 33.6168 291.143 39.391 292.731 44.9286C294.913 52.5422 295.746 59.9 297.924 67.5136V67.5088Z" fill="#F68973"/>
<path d="M104.49 60.3152L78.1438 83.6003L67.2427 70.3524C70.1214 68.6627 73.4483 69.2034 76.327 67.5136C78.4848 66.2487 74.0863 61.6767 77.7541 59.031C83.6625 54.7631 87.5008 60.5711 87.6615 58.0847C87.7395 56.8826 85.6011 52.7547 89.303 50.9297C93.3166 48.9503 95.4939 51.5187 97.0965 50.5773C98.0219 50.0366 97.5787 45.2714 100.448 43.5478C103.058 41.9836 105.338 44.1706 107.778 42.6933C108.996 41.9595 106.911 38.9082 109.527 37.6723C111.475 36.755 119.527 38.6427 122.922 37.6723C116.78 45.2183 110.638 52.7643 104.49 60.3152Z" fill="#331111"/>
<path d="M133.316 69.0296L100.477 71.6029C100.477 71.6029 82.8686 98.0936 80.3893 102.965C73.9207 115.682 70.9397 135.906 61.8604 142.288C61.9724 141.955 62.1137 141.429 61.8458 141.038C60.2627 138.75 47.4036 146.078 48.9428 136.751C52.2209 116.903 60.9593 95.0569 60.9593 95.0569C66.5803 84.7493 71.0518 74.5865 80.5695 65.1141C86.1662 59.5427 92.094 51.4077 109.084 45.45C115.163 43.3161 118.762 40.7525 118.762 40.7525C120.715 39.3427 122.581 42.8816 127.574 42.6981C136.911 42.3553 136.595 36.4508 138.645 35.4804C143.131 33.3609 176.458 23.3382 179.025 21.5518C182.064 19.4372 164.266 20.6973 164.266 20.6973C166.672 15.4928 164.539 8.03848 167.973 8.02882C175.133 8.00951 187.564 8.12056 193.847 10.2304C198.903 11.9298 202.206 14.73 202.464 18.4185C202.926 24.9796 202.283 25.1148 200.764 27.5481C199.083 30.2421 195.143 33.0568 192.858 33.7906C179.127 38.2033 149.765 54.7486 140.272 53.4933C138.523 53.2616 137.476 64.2306 133.326 69.0247L133.316 69.0296Z" fill="#EB5A41"/>
<path d="M272.868 201.092C262.234 197.636 256.755 199.557 251.416 196.578C246.497 193.836 241.416 159.205 236.993 155.729C236.993 155.729 223.068 176.702 222.78 178.054C222.775 178.078 222.688 178.02 222.658 178.049C222.264 178.483 234.358 189.79 232.853 189.254C228.995 187.883 218.406 194.068 202.61 188.521C197.008 186.556 198.309 177.127 199.921 175.133C208.538 162.908 216.838 148.685 225.449 136.461C233.623 138.619 244.826 138.595 252.999 140.753C254.904 141.255 254.095 145.948 256 146.45C261.621 164.666 267.242 182.882 272.863 201.092H272.868Z" fill="#F05B41"/>
<path d="M97.7589 75.359L133.316 73.5292L122.479 110.559L76.8189 129.369C80.7302 119.283 82.7565 106.702 86.6679 96.6163C89.7365 88.6985 92.5032 81.3022 97.7638 75.359H97.7589Z" fill="#20666C"/>
<path d="M123.2 85.1983L109.084 93.7485C109.045 93.8354 106.829 98.842 106.77 98.784C104.719 96.8625 103.175 96.6935 102.104 98.084C98.811 102.376 104.52 103.675 104.51 103.694C104.432 103.863 101.315 110.641 101.164 110.975H125.947C125.689 108.551 124.792 107.44 124.534 105.017C124.393 103.699 124.51 101.652 124.568 100.512L127.569 100.541C127.652 99.2475 124.812 96.9639 124.836 96.6935C124.929 95.6507 124.953 93.7582 125.007 90.0165C125.031 88.264 125.031 87.2453 123.204 85.1983H123.2Z" fill="#FCB4A6"/>
<path d="M114.378 110.979H100.477V116.898H114.378V110.979Z" fill="#3265AB"/>
<path d="M129.045 376.196L100.969 376.018L104.505 364.271L118.572 358.792L116.887 366.647C116.692 367.564 117.145 368.496 117.988 368.916L125.883 372.836C126.673 373.227 127.354 373.811 127.861 374.531L129.04 376.196H129.045Z" fill="#ED5A41"/>
<path d="M66.4244 146.73L47.8663 144.968C47.462 143.375 39.4981 140.782 38.7139 138.103C38.6408 137.847 38.5191 137.61 38.3388 137.412C38.0271 137.069 37.7154 136.461 38.6506 135.901H56.1614C57.009 135.901 59.0694 141.043 59.912 141.043C60.706 141.043 60.2822 135.901 61.0762 135.901H66.4244V146.735V146.73Z" fill="#38222F"/>
<path d="M83.0049 232.86L82.4789 245.896C82.4204 245.818 73.1803 233.599 73.1657 233.584C73.1657 233.58 72.3279 225.247 72.3961 226.12C72.4497 226.806 70.1506 230.374 69.7512 229.814C68.5091 228.071 67.0381 225.85 66.702 223.764C68.0172 220.042 69.3323 216.32 70.6523 212.597L83.0049 232.855V232.86Z" fill="#38222F"/>
<path d="M83.005 232.86C78.6796 227.255 70.5842 223.079 70.024 216.04C69.6782 211.699 84.5101 174.056 84.5101 174.056C83.5651 172.835 68.8112 197.114 66.478 200.04C66.0542 200.571 64.2812 201.03 62.5764 201.358C60.4186 201.778 58.1975 201.02 56.7801 199.35C55.0412 197.303 53.161 194.57 52.2306 190.964C51.1785 186.879 50.8912 182.809 49.9316 180.101C49.9316 180.101 45.9862 155.015 47.4231 145.156C47.4718 144.838 47.5254 144.649 47.6471 144.48C49.5078 141.917 61.5876 146.189 61.8555 142.284C62.026 139.817 62.9418 176.552 63.1122 174.085C74.5588 156.444 74.515 155.942 76.8335 145.32C78.8404 136.138 108.714 150.723 108.714 150.723C103.024 180.627 89.7024 206.104 83.0001 232.86H83.005Z" fill="#349894"/>
<path d="M327.086 185.682C325.542 186.942 321.026 197.09 320.559 199.016C319.94 201.561 315.649 202.951 316.526 199.287C316.715 198.49 323.004 179.912 314.923 200.156C314.577 201.025 312.707 201.865 311.411 201.599C310.656 201.445 313.973 191.132 313.973 191.132C313.676 191.219 308.966 202.048 308.406 202.483C307.427 203.241 305.279 202.251 305.249 200.576C305.181 196.588 304.597 193.334 308.074 178.3C308.795 175.186 300.491 182.167 300.642 181.467C300.831 180.564 309.643 168.007 311.021 165.4C311.435 164.618 310.914 162.054 311.586 160.408C317.456 159.36 323.325 158.317 329.195 157.269L327.09 185.682H327.086Z" fill="#A94E47"/>
<path d="M251.416 196.578C251.416 202.449 244.1 203.555 233.662 203.555C223.223 203.555 215.864 198.799 215.864 192.928C215.864 187.058 223.223 182.302 233.662 182.302C244.1 182.302 251.416 190.712 251.416 196.578Z" fill="#382527"/>
<path d="M108.275 252.602L101.641 264.092C100.048 262.566 96.6922 260.886 95.6595 258.941C95.3478 258.356 99.4442 255.238 97.2377 254.653C87.2231 251.993 83.9255 247.136 79.4687 242.868C79.4687 241.285 77.4132 236.882 85.2163 238.181C87.0721 238.49 91.792 241.444 93.4238 240.508C95.8008 239.141 94.8607 232.633 97.2377 231.262C100.92 238.374 104.598 245.49 108.28 252.602H108.275Z" fill="#F05B41"/>
<path d="M80.9738 323.562H64.705L71.1151 309.547L77.5252 309.677C77.5252 309.677 78.4312 309.6 80.024 308.388C82.2451 306.694 79.4395 310.73 77.8857 311.657C77.1307 312.106 80.1165 314.495 78.4604 317.247C77.5788 318.71 80.4185 320.632 80.9738 323.567V323.562Z" fill="#A64749"/>
<path d="M219.424 196.491C219.424 197.612 219.624 199.321 219.424 200.233C218.416 204.752 214.582 206.075 208.206 206.075C203.15 206.075 203.857 204.448 201.986 202.338C201.986 202.338 201.295 203.101 196.935 205.331C196.609 205.5 196.239 205.452 196.239 205.452C196.015 205.182 196.112 204.38 196.049 204.4C195.912 204.443 196.292 204.066 196.292 204.066L196.049 204.4C195.976 204.149 196.18 199.364 196.209 198.741C196.307 196.564 196.516 192.156 199.945 189.274C201.723 187.782 204.159 186.908 207.305 186.908C208.645 186.908 208.762 186.3 212.225 187.623C215.016 188.69 216.078 190.201 216.75 189.621C217.291 189.153 216.979 188.54 217.602 188.101C218.981 187.125 221.397 188.564 221.465 188.632C223.107 190.186 222.332 192.364 219.366 193.682C219.366 193.682 219.424 195.415 219.424 196.491Z" fill="#C79558"/>
<path d="M312.278 235.612C312.882 235.955 313.393 237.62 311.538 239.054C309.015 241.005 301.601 242.675 297.724 243.361C295.293 243.791 291.25 253.219 285.361 256.44C281.207 257.106 271.47 260.099 266.803 253.64C259.726 243.839 260.905 222.582 253.827 212.781C260.671 212.066 267.519 211.347 274.363 210.632C278.391 217.102 278.839 233.299 283.053 236.071C285.245 237.514 291.241 224.682 293.433 226.125C295.878 227.738 295.464 228.452 297.909 230.065C297.909 230.065 294.631 233.068 295.249 233.377C296.287 233.898 306.501 231.441 312.283 235.617L312.278 235.612Z" fill="#F05B41"/>
<path d="M76.3319 387.894C72.1672 393.601 46.7947 426.556 45.8303 425.34C45.8303 425.34 41.086 427.338 40.5161 426.885C38.6409 425.398 38.6311 413.304 37.9102 414.342C42.0748 408.345 49.917 397.338 60.4381 385.823C61.8117 384.322 62.7031 382.453 62.9953 380.445C65.0801 366.13 67.16 351.81 69.2447 337.496C74.1984 335.647 83.0927 330.645 88.0464 328.801C99.9898 324.344 108.1 320.994 119.926 318.589C120.413 318.527 122.459 318.329 124.437 319.676C125.713 320.545 127.272 321.829 127.077 323.461C125.635 335.647 119.464 357.208 118.071 360.042C116.76 362.702 114.349 364.324 114.349 364.324C110.491 365.411 104.749 364.102 104.749 364.102C104.646 364.204 104.568 364.295 104.5 364.276C103.399 363.895 113.346 333.324 111.1 336.071C106.78 341.358 86.1272 341.575 84.8705 348.257C83.1462 357.416 80.8764 381.589 76.3319 387.894Z" fill="#1E696A"/>
<path d="M0.818289 388.165C0.521164 388.469 0.311716 388.845 0.214298 389.256C-0.0146344 390.236 -0.287405 391.911 0.745225 391.337C3.85286 389.613 11.6804 382.728 12.1383 383.395C12.1772 383.453 12.1675 383.525 12.1529 383.578C12.148 383.597 4.46172 391.168 2.57668 393.026C2.27469 393.326 2.07498 393.712 1.99705 394.127C1.4856 396.836 3.43396 396.367 3.46806 396.367C3.90157 396.382 14.3302 387.585 14.4032 387.547C19.3082 385.017 3.21477 397.56 5.19235 399.858C4.81729 399.419 6.06424 403.257 26.7948 382.304L18.0126 370.697L0.818289 388.165Z" fill="#A64749"/>
<path d="M71.1151 309.547C70.4137 309.214 67.4035 309.276 67.4035 309.276C68.1292 303.98 64.8852 304.024 63.4191 303.98C61.5827 303.927 59.7123 306.428 59.873 308.016C59.9851 309.136 61.0859 309.909 62.8784 311.343C64.3494 312.521 57.0625 324.88 55.1629 324.702C43.5799 323.625 42.6008 332.195 42.6008 332.195C40.7499 341.305 29.2254 337.694 28.4606 342.946L37.9248 354.886C45.5964 344.409 63.2875 336.385 70.9592 325.909C71.909 324.61 71.3343 321.771 71.456 320.057C71.456 320.048 69.7853 319.961 68.5432 319.183C67.5545 318.565 67.5447 317.136 68.5286 316.514C69.5126 315.891 70.6475 315.5 71.1248 314.848C71.909 313.776 70.3406 310.623 71.1248 309.552L71.1151 309.547Z" fill="#3B2826"/>
<path d="M132.557 292.35L26.7948 382.308L18.0126 370.702L122.6 278.827L132.557 292.35Z" fill="#E99E44"/>
<path d="M284.524 207.456C270.203 211.439 268.294 214.118 253.365 214.118C234.451 214.118 239.96 223.716 221.046 223.716V200.822C235.907 196.154 257.924 197.592 272.785 192.924C289.848 187.565 299.648 182.611 316.813 170.735C321.869 168.456 319.355 173.844 319.355 173.844C319.355 173.887 308.518 184.204 308.523 184.258C308.532 184.325 307.207 192.88 306.141 197.225C306.141 197.225 294.933 203.55 284.519 207.456H284.524Z" fill="#FCB4A6"/>
<path d="M45.8351 425.34L39.4981 431.795C37.8566 433.47 36.4538 435.358 35.3384 437.414C33.7943 440.253 33.6189 444.835 31.5829 448.378C30.5259 450.324 28.5873 449.817 27.5303 451.758C27.3355 443.497 27.1455 435.232 26.9507 426.971L37.9151 414.337L45.8351 425.335V425.34Z" fill="#ED5A41"/>
<path d="M31.013 449.141C30.4577 449.556 30.3798 450.672 29.3374 451.439C28.7237 451.893 27.5303 451.763 27.5303 451.763C27.3355 443.502 27.1455 435.237 26.9507 426.976L29.8781 423.602L31.013 449.141Z" fill="#3B2826"/>
<path d="M129.288 377.35L100.974 377.278V376.018L129.045 376.196L129.288 377.35Z" fill="#3B2826"/>
<path d="M144.724 298.858C144.724 298.858 144.597 300.446 143.01 300.803C140.218 301.441 140.769 299.606 140.798 299.601C140.808 299.601 140.813 299.601 140.798 299.601L143.448 288.087C142.771 288.376 139.882 299.988 139.634 299.321C139.498 298.959 140.058 299.901 138.192 300.2C137.695 300.282 136.911 299.51 136.619 299.355C135.382 298.694 137.632 292.335 137.515 292.301C137.447 292.282 136.965 293.702 135.591 297.361C135.591 297.361 133.726 299.384 132.902 296.888C132.805 296.589 133.886 290.539 133.336 291.254C132.084 292.866 132.264 290.293 131.651 289.467C131.232 288.903 131.027 288.845 131.154 287.174L150.228 283.418L144.729 298.858H144.724Z" fill="#F68973"/>
<path d="M186.132 285.002C185.182 276.239 155.46 230.345 154.627 213.833C153.385 189.201 160.214 172.096 157.315 172.922C155.693 173.385 145.596 191.562 140.433 200.75C122.05 233.44 110.842 248.324 108.28 252.597C106.848 254.982 101.505 248.884 97.2377 231.257C103.477 218.695 109.03 205.114 115.27 192.547C121.651 179.695 129.278 166.718 135.659 153.861C149.327 160.398 162.435 167.07 176.102 173.607C174.144 184.885 175.547 204.385 175.547 208.016C175.547 214.548 191.757 238.518 209.176 272.478C211.314 276.649 185.859 278.132 186.141 284.992L186.132 285.002Z" fill="#1E666A"/>
<path d="M285.361 256.435C281.362 259.245 278.099 263.865 274.105 266.675C270.496 269.214 265.668 272.483 262.536 272.483C258.835 272.483 254.719 269.721 252.468 265.772C250.145 261.692 248.81 251.848 248.81 248.396C254.806 247.18 260.807 245.963 266.803 244.747C267.086 245.973 267.69 252.167 267.69 252.167C269.175 253.104 281.567 235.134 283.053 236.071C286.394 238.176 282.015 254.335 285.357 256.435H285.361Z" fill="#C79558"/>
<path d="M159.093 283.954C154.071 285.673 147.427 284.606 142.162 285.528C138.333 286.199 136.229 291.094 132.557 292.35C129.24 287.84 125.922 283.331 122.6 278.827L147.306 265.164C149.595 266.588 156.619 273.714 158.085 273.786C160.467 273.902 160.647 275.331 158.163 276.075C156.336 276.62 144.427 277.769 144.354 277.673C144.344 277.663 144.378 277.615 144.461 277.543C144.476 277.528 158.855 277.919 158.874 277.924C160.52 278.465 160.024 279.556 159.517 280.15C159.507 280.159 145.226 281.337 145.231 281.342C145.231 281.347 157.997 281.612 157.997 281.612C160.574 282.593 159.093 283.949 159.093 283.949V283.954Z" fill="#A64749"/>
<path d="M266.803 244.747C252.093 248.981 243.861 249.352 231.645 246.779C224.597 245.292 211.197 235.322 209.005 232.556C209.005 232.556 207.169 231.045 207.188 230.002C207.325 222.219 209.337 213.862 209.473 206.075C209.809 205.983 210.33 205.853 210.973 205.693C211.826 205.481 212.907 205.216 213.818 204.993C215.065 204.689 216.175 204.009 217.003 203.038C218.065 201.797 219.395 200.248 219.424 200.228C230.155 204.419 245.313 204.776 253.827 212.771C261.109 219.612 265.332 235.042 266.803 244.742V244.747Z" fill="#EDD661"/>
<path d="M158.085 273.791C168.908 262.663 179.259 258.743 183.345 254.489C191.241 246.272 201.397 228.805 209.005 227.66C209.848 227.535 213.759 226.82 218.289 224.604C219.147 224.184 220.033 223.624 221.046 222.804C218.255 217.227 215.459 211.651 212.668 206.075L142.961 261.272C141.787 262.204 140.759 263.3 139.936 264.551C137.72 267.925 130.759 276.287 131.388 276.669C131.388 276.669 130.043 285.035 133.75 283.128C134.919 282.525 136.755 278.711 138.246 275.944C139.537 273.54 140.564 272.097 140.569 272.101C134.393 276.369 157.963 273.704 158.095 273.786L158.085 273.791Z" fill="#FCB4A6"/>
<path d="M222.425 290.428C219.122 291.157 217.198 291.447 213.896 292.176C213.896 292.176 211.08 286.778 211.075 286.778C208.133 287.43 204.261 288.627 198.986 290.8C195.255 292.335 189.322 293.335 181.977 294.209C181.645 294.228 176.93 294.431 175.747 292.065C175.372 291.312 175.528 290.312 176.097 288.965C178.255 283.872 189.254 282.433 191.412 277.34C192.142 275.621 187.305 271.768 188.036 270.05H211.226L222.425 290.428Z" fill="#F05B41"/>
<path d="M226.774 244.747C221.684 248.073 206.843 248.701 202.084 252.476C200.72 253.557 211.222 270.054 211.222 270.054C205.503 273.786 188.031 270.054 188.031 270.054C185.304 265.28 182.712 260.423 179.848 255.725C177.661 252.138 177.895 243.815 181.572 240.894C189.585 234.531 196.297 230.152 209 227.665C209 227.665 208.245 231.692 209 232.561C214.923 236.626 220.846 240.686 226.769 244.751L226.774 244.747Z" fill="#C79558"/>
<path d="M215.854 189.573C215.698 189.433 212.386 191.664 208.109 191.664C208.109 191.664 204.519 191.495 201.387 190.162C200.988 189.993 199.945 189.274 199.945 189.274C199.906 189.361 199.931 189.11 199.945 189.274C201.256 186.459 203.832 185.378 208.109 185.378C212.386 185.378 216.049 189.752 215.854 189.573Z" fill="#382527"/>
<path d="M86.663 186.855C86.663 187.106 86.6678 188.303 87.1403 188.313C87.1403 188.313 87.267 188.265 87.4374 188.202C87.944 188.009 88.3434 186.44 88.5821 185.957C98.1437 166.8 87.5154 188.902 87.5154 188.907C87.4423 190.152 88.6259 190.22 89.0059 189.394C89.0059 189.385 95.9225 178.338 95.9177 178.348C95.4355 179.13 89.6147 188.429 89.4491 190.37C89.1471 193.918 97.7345 179.927 97.7443 179.927C98.1534 179.937 91.0224 190.157 91.0663 190.944C91.1198 191.919 91.8115 191.219 91.982 191.012C94.6025 187.854 96.8188 184.011 99.4393 180.859C99.4393 180.859 99.4637 180.849 99.4588 180.859C98.4944 182.046 95.7131 188.627 98.1924 186.99C105.206 180.072 113.696 166.891 120.759 162.223C135.27 152.635 143.55 148.347 149.77 139.107C145.874 134.844 149.498 133.627 145.606 129.364C133.891 135.751 119.727 145.33 110.384 154.45C100.93 163.681 89.0546 175.818 86.663 186.85V186.855Z" fill="#E39C42"/>
<path d="M149.444 234.096C147.354 236.587 146.517 234.989 146.575 234.169C146.677 232.715 152.191 226.053 151.524 226.12C150.822 226.193 145.742 233.338 145.43 233.488C145.026 233.681 144.958 233.753 144.758 233.763C144.008 233.797 143.428 232.952 143.453 232.662C143.662 229.973 150.004 223.209 149.692 223.064C149.678 223.06 149.663 223.055 149.653 223.06C149.478 223.074 142.625 231.919 141.67 231.533C141.305 231.383 141.12 231.315 141.012 231.185C139.205 228.921 150.671 217.459 150.662 217.449C150.662 217.449 144.222 221.466 142.61 222.471C142.406 222.596 142.143 222.543 142.006 222.345C141.582 221.737 141.388 220.786 141.957 220.312C149.775 213.848 153.711 209.923 153.711 209.923C157.968 205.013 160.462 199.383 168.411 188.521C172.956 182.307 178.177 172.521 180.287 157.269C186.93 158.042 185.591 157.883 192.235 158.655C193.37 174.384 186.385 185.001 180.218 196.105C172.401 210.188 158.504 222.495 149.444 234.096Z" fill="#E39C42"/>
<path d="M176.098 173.617L135.654 153.871C137.374 149.636 146.57 144.867 149.77 139.112L143.122 130.75C145.552 129.258 151.855 125.241 154.753 125.058C162.138 124.584 168.635 128.939 176.02 128.466C177.495 126.95 184.183 128.036 184.169 129.369C185.245 129.369 189.171 134.404 190.501 140.169C191.879 146.146 192.361 154.184 192.235 158.655C192.23 158.863 192.22 159.239 192.23 158.863C192.235 158.655 180.267 158.192 180.267 158.192C180.218 164.762 178.119 167.939 176.102 173.617H176.098Z" fill="#FBE8A2"/>
<path d="M193.404 67.5088L179.916 73.225C179.132 68.8944 176.755 64.7713 175.971 60.4455C175.094 55.5886 173.38 51.1373 174.929 45.6673C175.235 45.1507 175.591 45.1748 176.253 45.3921C177.111 45.6721 176.327 56.1101 177.291 55.0914C177.189 55.1976 177.661 54.8017 177.291 55.0914C177.047 55.2797 177.208 44.0548 177.612 43.2823C178.811 40.9842 179.444 43.1664 179.444 43.1664C179.444 43.1664 181.631 54.4493 181.816 54.4348C182.167 54.4155 181.305 44.1513 182.099 43.9003C182.099 43.9003 182.176 42.8816 184.091 43.9003C184.588 44.1658 186.814 57.9833 187.715 57.7274C188.762 57.4329 189.687 51.9339 189.814 51.6346C191.056 48.6075 192.946 50.0945 193.214 51.6153C193.277 56.9115 193.336 62.2077 193.399 67.504L193.404 67.5088Z" fill="#B24D4C"/>
<path d="M171.241 131.512C181.821 131.512 190.398 123.932 190.398 114.581C190.398 105.23 181.821 97.6495 171.241 97.6495C160.661 97.6495 152.084 105.23 152.084 114.581C152.084 123.932 160.661 131.512 171.241 131.512Z" fill="#392527"/>
<path d="M178.036 124.638C178.036 129.736 173.74 133.873 168.436 133.873C167.252 133.873 166.073 133.569 166.073 133.569C165.474 133.42 163.949 135.413 161.597 136.751C161.597 136.751 161.982 132.029 161.709 131.228C161.085 129.408 158.772 127.269 158.835 124.638C158.937 120.152 162.98 115.402 168.436 115.402C173.891 115.402 178.036 119.534 178.036 124.638Z" fill="#E39C42"/>
<path d="M174.096 115.942C174.027 115.112 172.741 113.939 167.827 113.939C162.912 113.939 158.835 120.201 158.835 122.793C158.835 125.386 159.249 126.366 164.159 126.366C169.069 126.366 174.305 118.521 174.091 115.942H174.096Z" fill="#392527"/>
<path d="M179.989 123.571C179.989 127.216 179.312 128.418 178.275 128.548C175.791 128.852 173 126.989 173 123.344C173 119.699 171.344 116.049 173.857 116.049C176.37 116.049 179.989 119.925 179.989 123.571Z" fill="#392527"/>
<path d="M172.464 74.7217C163.954 88.3751 158.84 110.014 118.217 126.361C118.217 126.361 113.287 146.73 108.718 150.718C108.718 152.398 99.113 148.864 93.3946 149.313C93.3946 149.313 93.906 148.468 91.2952 148.927C85.6644 149.917 80.136 159.07 78.4409 159.751C69.8925 163.193 67.4862 170.788 57.7932 168.615C57.7932 168.615 52.3183 165.559 51.5048 161.243C49.347 149.844 57.6909 144.176 57.6909 144.176C68.5578 133.405 92.2888 116.039 100.482 111.37C100.852 111.274 103.784 116.474 106.999 115.392C110.272 114.287 113.107 111.882 114.349 110.308C114.349 110.308 130.063 102.386 135.698 96.3122C141.582 89.9731 149.278 81.0897 157.729 67.4991C157.729 67.4991 167.549 72.3078 172.459 74.7121L172.464 74.7217Z" fill="#F1E6D4"/>
<path d="M97.0964 145.996L78.4409 159.761L72.0941 146.735L86.663 138.257C89.4296 137.948 87.3693 139.985 87.3693 139.985C87.9294 141.009 82.0892 144.519 82.0502 144.698C81.9869 144.982 92.1184 138.194 92.6834 137.977C94.7438 137.2 94.1544 138.31 94.3298 138.61C95.0799 139.87 85.5329 146.827 85.416 147.406C85.3089 147.952 95.1383 139.43 95.075 139.87C95.0653 139.952 96.4194 138.962 96.4583 141.207C96.4973 143.452 84.6416 150.892 85.1676 150.897C85.7326 150.901 92.4642 146.17 94.622 144.548C95.2845 144.051 95.6741 143.404 96.4973 143.529C96.8919 143.587 97.2231 143.64 97.2231 143.64C97.3595 143.722 97.4569 143.833 97.5348 143.964C97.9488 144.64 97.7199 145.523 97.0818 145.996H97.0964Z" fill="#FCB4A6"/>
<path d="M124.549 86.777C124.549 89.722 119.478 92.0732 116.117 93.0919C111.685 94.4389 109.079 93.7534 109.079 93.7534C109.079 90.8083 115.533 84.7107 120.17 84.7107C124.807 84.7107 124.549 86.777 124.549 86.777Z" fill="#E46041"/>
<path d="M133.316 73.5292L97.7589 75.359L100.477 71.6029L133.316 69.0296V73.5292Z" fill="#652830"/>
<path d="M138.855 26.597C140.662 35.5528 135.762 42.6981 127.569 42.6981C123.102 42.6981 119.707 41.5587 117.54 39.2317C116.156 37.7447 110.452 42.2732 109.615 36.6439C108.714 30.5945 114.714 33.2885 114.778 30.8842C114.841 28.4413 114.948 24.2023 118.027 21.3008C119.956 19.4855 128.075 15.7197 136.643 21.5711C138.07 22.5464 141.115 24.0334 141.31 24.3568C142.474 26.2783 138.499 24.8155 138.855 26.597Z" fill="#AD5149"/>
<path d="M128.363 18.4233C128.363 21.2332 122.712 29.093 122.712 29.093C117.876 29.093 114.783 33.694 114.783 30.8842C114.783 28.0743 114.783 20.6394 122.712 18.9206C126.819 18.0323 128.363 18.4282 128.363 18.4282V18.4233Z" fill="#331111"/>
<path d="M164.261 20.6925L147.423 20.1517C146.999 20.1372 146.663 19.7848 146.682 19.36C146.697 19.0123 146.707 18.6937 146.711 18.4185C146.726 17.5978 150.194 16.7818 150.165 16.3811C150.15 16.217 146.658 16.3087 146.643 15.8694C146.638 15.6231 146.638 15.3383 146.643 15.2417C146.721 14.0106 149.507 13.0692 149.507 12.3257C149.507 12.0746 148.095 12.9292 146.541 12.4078C146.195 12.2919 146.643 11.3215 146.643 11.3215C147.033 9.20201 152.586 8.024 155.65 8.024C156.921 8.024 153.92 0 155.947 0C158.27 0 161.577 8.024 162.63 8.024C164.412 8.024 166.19 8.024 167.973 8.024C166.736 12.2484 165.503 16.468 164.266 20.6925H164.261Z" fill="#AD5149"/>
<path d="M172.464 74.7217L157.734 67.5088L164.919 47.1157C164.919 47.1157 165.25 46.7053 165.533 46.3528C165.791 46.0294 166.171 45.8169 166.59 45.7735L166.702 45.759C167.364 45.6866 167.914 46.2515 167.817 46.9032C167.33 50.2393 165.396 58.9634 165.81 58.9537C166.395 58.9392 168.299 48.453 169.23 45.6963C169.361 45.3004 169.731 45.0397 170.15 45.0397H170.72C171.251 45.0397 171.66 45.4983 171.602 46.0197C171.314 48.4095 170.603 54.3286 170.603 54.3286C170.618 54.3286 174.154 44.1465 174.154 44.1465C175.148 43.4851 176.453 44.2237 176.249 45.3921C175.591 49.182 173.657 60.3345 173.662 60.3345C173.94 60.3248 174.578 57.9592 176.205 56.7763C177.681 55.7045 179.439 56.5156 179.439 56.5156C178.913 58.7171 178.202 60.8221 172.459 74.7217H172.464Z" fill="#FCB4A6"/>
<path d="M314.183 167.867L303.282 178.054C289.804 166.582 271.129 157.023 257.651 145.552C256.93 144.939 256.726 147.063 256.009 146.45C250.291 141.584 231.494 143.326 225.776 138.46C223.399 136.437 229.497 133.535 227.12 131.512C208.747 115.87 191.509 100.498 179.921 73.2299C184.417 71.3228 190.934 63.3326 193.409 67.5136C199.931 78.5261 206.399 88.0612 210.545 93.9272C210.545 93.9272 224.446 105.181 233.642 112.046C238.406 115.6 242.863 115.358 243.691 116.054C243.706 116.063 245.722 116.044 245.737 116.054C245.8 116.107 313.54 167.331 314.187 167.872L314.183 167.867Z" fill="#E39C42"/>
<path d="M253.179 105.514C253.179 108.102 251.967 110.443 251.967 110.443C251.553 111.298 257.281 114.084 254.368 116.7C250.812 119.892 250.096 113.364 249 114.301C247.481 115.6 244.504 116.985 241.694 116.898C236.438 116.744 230.208 112.36 230.208 105.514C230.208 99.2282 235.352 94.1299 241.694 94.1299C248.036 94.1299 253.179 99.2282 253.179 105.514Z" fill="#B24D4C"/>
<path d="M270.486 95.728C270.486 100.426 266.136 105.514 260.739 105.514C255.342 105.514 251.363 104.1 251.363 99.402C251.363 94.7045 258.995 87.8874 264.319 88.7806C268.065 89.4082 270.486 91.0304 270.486 95.728Z" fill="#392723"/>
<path d="M271.781 113.673C276.777 113.673 280.827 110.254 280.827 106.036C280.827 101.817 276.777 98.3978 271.781 98.3978C266.786 98.3978 262.736 101.817 262.736 106.036C262.736 110.254 266.786 113.673 271.781 113.673Z" fill="#392723"/>
<path d="M270.647 112.172C270.647 117.106 269.336 120.659 264.012 120.659C258.688 120.659 251.66 113.625 251.66 108.691C251.66 103.757 252.692 101.261 261.007 103.235C266.185 104.466 270.647 107.233 270.647 112.167V112.172Z" fill="#392723"/>
<path d="M251.913 99.542C251.913 100.875 250.359 101.285 249.029 101.285C247.7 101.285 246.623 100.203 246.623 98.8661C246.623 97.5288 247.7 96.4473 249.029 96.4473C250.359 96.4473 251.913 98.2047 251.913 99.5372V99.542Z" fill="#392723"/>
<path d="M251.363 106.422C252.904 106.422 254.154 104.993 254.154 103.231C254.154 101.468 252.904 100.039 251.363 100.039C249.821 100.039 248.572 101.468 248.572 103.231C248.572 104.993 249.821 106.422 251.363 106.422Z" fill="#392723"/>
<path d="M253.355 111.897C254.896 111.897 256.146 110.468 256.146 108.705C256.146 106.943 254.896 105.514 253.355 105.514C251.813 105.514 250.564 106.943 250.564 108.705C250.564 110.468 251.813 111.897 253.355 111.897Z" fill="#392723"/>
<path d="M225.108 59.7455C225.108 66.2342 219.429 71.4966 212.425 71.4966C212.259 71.4966 212.732 71.5208 212.259 71.4966C211.09 71.4339 210.89 73.5195 209.712 73.8623C207.213 74.5913 207.817 70.7773 206.74 70.251C205.318 69.551 199.717 65.6355 199.741 59.7455C199.77 53.5464 205.717 47.9943 212.425 47.9943C219.132 47.9943 225.108 53.2568 225.108 59.7455Z" fill="#F68973"/>
<path d="M215.732 49.882C215.732 52.0739 213.93 58.2005 209.074 58.2005C204.217 58.2005 200.048 58.944 200.048 56.757C200.048 54.5699 205.786 48.1295 210.642 48.1295C215.498 48.1295 215.732 47.695 215.732 49.8869V49.882Z" fill="#F3CF5D"/>
<path d="M224.48 56.0907C224.48 59.1613 223.599 59.7793 220.359 59.7793C217.12 59.7793 212.425 57.9012 212.425 54.8307C212.425 51.7601 211.67 48.1585 214.904 48.1585C218.138 48.1585 224.48 53.0202 224.48 56.0907Z" fill="#F9C973"/>
<path d="M243.662 27.1329C243.662 35.0459 240.286 45.759 225.995 41.2208C223.725 40.5014 224.422 49.182 220.535 47.9943C217.641 47.1108 219.22 36.8805 218.523 36.1804C217.607 35.2679 216.735 34.5148 215.152 31.8256C213.438 28.9047 211.504 27.1715 211.377 25.9356C211.119 23.4637 210.744 19.2779 213.277 16.637C214.636 15.2176 216.964 14.5513 220.934 14.5513C224.904 14.5513 227.612 16.9798 232.429 18.3702C234.685 19.022 229.288 7.30464 239.892 12.9581C251.027 18.8965 241.821 21.238 242.01 22.4257C242.366 24.6658 243.667 26.1432 243.667 27.1281L243.662 27.1329Z" fill="#A94E47"/>
<path d="M232.425 19.4082C232.425 21.2621 228.538 21.3539 223.745 21.3539C218.952 21.3539 212.98 20.229 212.98 18.3751C212.98 16.5211 214.772 13.9189 219.565 13.9189C224.358 13.9189 232.425 17.5543 232.425 19.4131V19.4082Z" fill="#36272B"/>
<path d="M215.308 23.0485C215.308 26.037 215.527 30.4111 214.242 30.4111C212.956 30.4111 210.647 26.0418 210.647 23.0485C210.647 20.0552 213.185 15.4493 214.47 15.4493C215.756 15.4493 215.303 20.06 215.303 23.0485H215.308Z" fill="#36272B"/>
</g>
<defs>
<clipPath id="clip0_540_676">
<rect width="329.195" height="451.777" fill="white"/>
</clipPath>
</defs>
</svg>
