<?xml version="1.0" encoding="UTF-8"?>
<svg id="Layer_1" xmlns="http://www.w3.org/2000/svg" version="1.1" viewBox="0 0 318.3 332.1">
  <!-- Generator: Adobe Illustrator 29.0.0, SVG Export Plug-In . SVG Version: 2.1.0 Build 186)  -->
  <defs>
    <style>
      .st0 {
        fill: #6b3f31;
        font-family: LibreBaskerville-Bold, 'Libre Baskerville';
        font-size: 24px;
        font-weight: 700;
      }

      .st0, .st1, .st2 {
        isolation: isolate;
      }

      .st2 {
        font-family: LibreBaskerville-Regular, 'Libre Baskerville';
        font-size: 231.6px;
        letter-spacing: 0em;
      }

      .st2, .st3 {
        fill: #4d7675;
      }
    </style>
  </defs>
  <text class="st2" transform="translate(0 246.2)"><tspan x="0" y="0">P</tspan></text>
  <path class="st3" d="M132.7,160.4c32.2,42,64.5,84.1,96.7,126.1h.9v-91.3c0-7.6-.3-13.6-.8-18.2-.5-4.6-1.6-8.1-3.2-10.5-1.6-2.5-3.9-4.1-6.9-4.9s-7-1.2-11.9-1.4v-8.8h62.3v8.8c-5.4.2-9.8.7-13.1,1.5-3.3.9-5.9,2.4-7.8,4.8-1.9,2.3-3.1,5.6-3.7,10-.6,4.3-.9,10-.9,17.1v138.5h-13.9l-110-145h-.9v98.9c0,7.7.3,13.8.8,18.3.5,4.5,1.6,8,3.2,10.4,1.6,2.5,3.9,4.1,7,4.9,3,.8,7,1.2,11.9,1.4v8.8h-62.3v-8.8c5.4-.1,9.8-.7,13.1-1.5,3.3-.9,5.9-2.4,7.8-4.8s3.1-5.6,3.7-9.9.9-10,.9-17.3v-94.1c0-6.5-.3-11.9-.8-16.1s-1.5-6.8-3.1-9.3c5.7.6,11.2-.9,16.6-2.1,5.1-1.1,10-2.8,14.5-5.7h0Z"/>
  <g class="st1">
    <text class="st0" transform="translate(104.4 54.3) rotate(-40.9)"><tspan x="0" y="0">P</tspan></text>
  </g>
  <g class="st1">
    <text class="st0" transform="translate(115.6 44.3) rotate(-32.8)"><tspan x="0" y="0">Å</tspan></text>
  </g>
  <g class="st1">
    <text class="st0" transform="translate(131.4 34.1) rotate(-23.2)"><tspan x="0" y="0">R</tspan></text>
  </g>
  <g class="st1">
    <text class="st0" transform="translate(148.2 26.6) rotate(-12.9)"><tspan x="0" y="0">Ø</tspan></text>
  </g>
  <g class="st1">
    <text class="st0" transform="translate(169.3 21.8) rotate(-2.7)"><tspan x="0" y="0">R</tspan></text>
  </g>
  <g class="st1">
    <text class="st0" transform="translate(188.2 20.9) rotate(6.4)"><tspan x="0" y="0">E</tspan></text>
  </g>
  <g class="st1">
    <text class="st0" transform="translate(205.8 22.6) rotate(16.5)"><tspan x="0" y="0">N</tspan></text>
  </g>
  <g class="st1">
    <text class="st0" transform="translate(226.7 28.8) rotate(27.5)"><tspan x="0" y="0">D</tspan></text>
  </g>
  <g class="st1">
    <text class="st0" transform="translate(245.4 38.6) rotate(37.3)"><tspan x="0" y="0">E</tspan></text>
  </g>
  <g class="st1">
    <text class="st0" transform="translate(264.1 53.4) rotate(50.4)"><tspan x="0" y="0">N</tspan></text>
  </g>
  <g class="st1">
    <text class="st0" transform="translate(278 70.3) rotate(60.4)"><tspan x="0" y="0">E</tspan></text>
  </g>
  <g class="st1">
    <text class="st0" transform="translate(286.8 85.7) rotate(69.8)"><tspan x="0" y="0">T</tspan></text>
  </g>
  <g class="st1">
    <text class="st0" transform="translate(293.6 104.1) rotate(79.8)"><tspan x="0" y="0">V</tspan></text>
  </g>
  <g class="st1">
    <text class="st0" transform="translate(296.9 119.9) rotate(89.1)"><tspan x="0" y="0">Æ</tspan></text>
  </g>
  <g class="st1">
    <text class="st0" transform="translate(296.8 146.4) rotate(101.4)"><tspan x="0" y="0">R</tspan></text>
  </g>
  <g class="st1">
    <text class="st0" transform="translate(293.1 165) rotate(111.1)"><tspan x="0" y="0">K</tspan></text>
  </g>
  <g class="st1">
    <text class="st0" transform="translate(286.3 182.8) rotate(120.5)"><tspan x="0" y="0">E</tspan></text>
  </g>
  <g class="st1">
    <text class="st0" transform="translate(277.4 198.1) rotate(129.8)"><tspan x="0" y="0">T</tspan></text>
  </g>
</svg>